<?xml version="1.0" encoding="UTF-8" standalone="no"?>
<svg
   version="1.1"
   style="font-family:'lucida grande', 'lucida sans unicode', arial, helvetica, sans-serif;font-size:12px;"
   width="600"
   height="400"
   id="svg263"
   sodipodi:docname="fund_chart.svg"
   inkscape:version="1.1.2 (b8e25be8, 2022-02-05)"
   xmlns:inkscape="http://www.inkscape.org/namespaces/inkscape"
   xmlns:sodipodi="http://sodipodi.sourceforge.net/DTD/sodipodi-0.dtd"
   xmlns="http://www.w3.org/2000/svg"
   xmlns:svg="http://www.w3.org/2000/svg">
  <sodipodi:namedview
     id="namedview265"
     pagecolor="#ffffff"
     bordercolor="#666666"
     borderopacity="1.0"
     inkscape:pageshadow="2"
     inkscape:pageopacity="0.0"
     inkscape:pagecheckerboard="0"
     showgrid="false"
     inkscape:zoom="0.91583333"
     inkscape:cx="258.78071"
     inkscape:cy="152.32029"
     inkscape:window-width="1312"
     inkscape:window-height="847"
     inkscape:window-x="47"
     inkscape:window-y="205"
     inkscape:window-maximized="0"
     inkscape:current-layer="g243" />
  <desc
     id="desc9">Created with Highcharts 4.2.7</desc>
  <defs
     id="defs89">
    <radialGradient
       cx="0.5"
       cy="0.3"
       r="0.7"
       id="highcharts-47">
      <stop
         offset="0"
         stop-color="#50B432"
         stop-opacity="1"
         id="stop11" />
      <stop
         offset="1"
         stop-color="rgb(4,104,0)"
         stop-opacity="1"
         id="stop13" />
    </radialGradient>
    <radialGradient
       cx="0.5"
       cy="0.3"
       r="0.7"
       id="highcharts-48">
      <stop
         offset="0"
         stop-color="#4708ea"
         stop-opacity="1"
         id="stop16" />
      <stop
         offset="1"
         stop-color="rgb(0,0,158)"
         stop-opacity="1"
         id="stop18" />
    </radialGradient>
    <radialGradient
       cx="0.5"
       cy="0.3"
       r="0.7"
       id="highcharts-49">
      <stop
         offset="0"
         stop-color="#DDDF00"
         stop-opacity="1"
         id="stop21" />
      <stop
         offset="1"
         stop-color="rgb(145,147,0)"
         stop-opacity="1"
         id="stop23" />
    </radialGradient>
    <radialGradient
       cx="0.5"
       cy="0.3"
       r="0.7"
       id="highcharts-50">
      <stop
         offset="0"
         stop-color="#e52424"
         stop-opacity="1"
         id="stop26" />
      <stop
         offset="1"
         stop-color="rgb(153,0,0)"
         stop-opacity="1"
         id="stop28" />
    </radialGradient>
    <radialGradient
       cx="0.5"
       cy="0.3"
       r="0.7"
       id="highcharts-51">
      <stop
         offset="0"
         stop-color="#e504c0"
         stop-opacity="1"
         id="stop31" />
      <stop
         offset="1"
         stop-color="rgb(153,0,116)"
         stop-opacity="1"
         id="stop33" />
    </radialGradient>
    <clipPath
       id="highcharts-52">
      <rect
         x="0"
         y="0"
         width="600"
         height="400"
         id="rect36" />
    </clipPath>
    <radialGradient
       cx="0.5"
       cy="0.3"
       r="0.7"
       id="highcharts-53">
      <stop
         offset="0"
         stop-color="rgb(55,155,25)"
         stop-opacity="1"
         id="stop39" />
      <stop
         offset="1"
         stop-color="rgb(0,79,0)"
         stop-opacity="1"
         id="stop41" />
    </radialGradient>
    <radialGradient
       cx="306"
       cy="112.8"
       r="172.2"
       id="highcharts-54"
       gradientUnits="userSpaceOnUse">
      <stop
         offset="0"
         stop-color="#50B432"
         stop-opacity="1"
         id="stop44" />
      <stop
         offset="1"
         stop-color="rgb(4,104,0)"
         stop-opacity="1"
         id="stop46" />
    </radialGradient>
    <radialGradient
       cx="0.5"
       cy="0.3"
       r="0.7"
       id="highcharts-55">
      <stop
         offset="0"
         stop-color="rgb(46,0,209)"
         stop-opacity="1"
         id="stop49" />
      <stop
         offset="1"
         stop-color="rgb(0,0,133)"
         stop-opacity="1"
         id="stop51" />
    </radialGradient>
    <radialGradient
       cx="306"
       cy="112.8"
       r="172.2"
       id="highcharts-56"
       gradientUnits="userSpaceOnUse">
      <stop
         offset="0"
         stop-color="#4708ea"
         stop-opacity="1"
         id="stop54" />
      <stop
         offset="1"
         stop-color="rgb(0,0,158)"
         stop-opacity="1"
         id="stop56" />
    </radialGradient>
    <radialGradient
       cx="0.5"
       cy="0.3"
       r="0.7"
       id="highcharts-57">
      <stop
         offset="0"
         stop-color="rgb(196,198,0)"
         stop-opacity="1"
         id="stop59" />
      <stop
         offset="1"
         stop-color="rgb(120,122,0)"
         stop-opacity="1"
         id="stop61" />
    </radialGradient>
    <radialGradient
       cx="306"
       cy="112.8"
       r="172.2"
       id="highcharts-58"
       gradientUnits="userSpaceOnUse">
      <stop
         offset="0"
         stop-color="#DDDF00"
         stop-opacity="1"
         id="stop64" />
      <stop
         offset="1"
         stop-color="rgb(145,147,0)"
         stop-opacity="1"
         id="stop66" />
    </radialGradient>
    <radialGradient
       cx="0.5"
       cy="0.3"
       r="0.7"
       id="highcharts-59">
      <stop
         offset="0"
         stop-color="rgb(204,11,11)"
         stop-opacity="1"
         id="stop69" />
      <stop
         offset="1"
         stop-color="rgb(128,0,0)"
         stop-opacity="1"
         id="stop71" />
    </radialGradient>
    <radialGradient
       cx="306"
       cy="112.8"
       r="172.2"
       id="highcharts-60"
       gradientUnits="userSpaceOnUse">
      <stop
         offset="0"
         stop-color="#e52424"
         stop-opacity="1"
         id="stop74" />
      <stop
         offset="1"
         stop-color="rgb(153,0,0)"
         stop-opacity="1"
         id="stop76" />
    </radialGradient>
    <radialGradient
       cx="0.5"
       cy="0.3"
       r="0.7"
       id="highcharts-61">
      <stop
         offset="0"
         stop-color="rgb(204,0,167)"
         stop-opacity="1"
         id="stop79" />
      <stop
         offset="1"
         stop-color="rgb(128,0,91)"
         stop-opacity="1"
         id="stop81" />
    </radialGradient>
    <radialGradient
       cx="306"
       cy="112.8"
       r="172.2"
       id="highcharts-62"
       gradientUnits="userSpaceOnUse">
      <stop
         offset="0"
         stop-color="#e504c0"
         stop-opacity="1"
         id="stop84" />
      <stop
         offset="1"
         stop-color="rgb(153,0,116)"
         stop-opacity="1"
         id="stop86" />
    </radialGradient>
  </defs>
  <rect
     x="10"
     y="10"
     width="580"
     height="324"
     stroke="#026fc1"
     stroke-width="2"
     fill="none"
     id="rect93" />
  <g
     class="highcharts-series-group"
     id="g159">
    <g
       class="highcharts-series highcharts-series-0"
       transform="translate(10,10) scale(1 1)"
       id="g155">
      <path
         fill="url(#highcharts-53)"
         d="M 233.71483898905385 232.36993497802024 L 233.71483898905385 240.3248862663689 L 306 169.95495128834867 L 306 162 Z"
         transform="translate(0,0)"
         visibility="visible"
         id="path95" />
      <path
         fill="url(#highcharts-61)"
         d="M 267.964038642401 79.28885914339217 L 267.964038642401 87.24381043174083 L 306 169.95495128834867 L 306 162 Z"
         transform="translate(0,0)"
         visibility="visible"
         id="path97" />
      <path
         fill="url(#highcharts-61)"
         d="M 305.95092541398515 75.02587283655843 L 305.95092541398515 82.98082412490709 L 306 169.95495128834867 L 306 162 Z"
         transform="translate(0,0)"
         visibility="visible"
         id="path99" />
      <path
         fill="url(#highcharts-59)"
         d="M 233.69540376519473 91.64004916388237 L 233.69540376519473 99.59500045223102 L 306 169.95495128834867 L 306 162 Z"
         transform="translate(0,0)"
         visibility="visible"
         id="path101" />
      <path
         fill="url(#highcharts-61)"
         d="M 267.964038642401 79.28885914339217 C 280.8773612248757 76.31966639826528 292.3720417381113 75.02970373499151 305.95092541398515 75.02587283655843 L 305.95092541398515 82.98082412490709 C 292.3720417381113 82.98465502334017 280.8773612248757 84.27461768661394 267.964038642401 87.24381043174083 Z"
         transform="translate(0,0)"
         visibility="visible"
         id="path103" />
      <path
         fill="url(#highcharts-61)"
         d="M 306 162 C 306 162 306 162 306 162 L 306 169.95495128834867 C 306 169.95495128834867 306 169.95495128834867 306 169.95495128834867 Z"
         transform="translate(0,0)"
         visibility="visible"
         id="path105" />
      <path
         fill="url(#highcharts-59)"
         d="M 267.9628689321313 79.28912810238977 L 267.9628689321313 87.24407939073842 L 306 169.95495128834867 L 306 162 Z"
         transform="translate(0,0)"
         visibility="visible"
         id="path107" />
      <path
         fill="url(#highcharts-57)"
         d="M 189.02948143039845 135.10299472470498 L 189.02948143039845 143.05794601305365 L 306 169.95495128834867 L 306 162 Z"
         transform="translate(0,0)"
         visibility="visible"
         id="path109" />
      <path
         fill="url(#highcharts-59)"
         d="M 233.69540376519473 91.64004916388237 C 244.68038997895047 85.99575163814565 255.0495883410288 82.25841215834785 267.9628689321313 79.28912810238977 L 267.9628689321313 87.24407939073842 C 255.0495883410288 90.2133634466965 244.68038997895047 93.9507029264943 233.69540376519473 99.59500045223102 Z"
         transform="translate(0,0)"
         visibility="visible"
         id="path111" />
      <path
         fill="url(#highcharts-59)"
         d="M 306 162 C 306 162 306 162 306 162 L 306 169.95495128834867 C 306 169.95495128834867 306 169.95495128834867 306 169.95495128834867 Z"
         transform="translate(0,0)"
         visibility="visible"
         id="path113" />
      <path
         fill="url(#highcharts-57)"
         d="M 233.6944087288428 91.6405604381034 L 233.6944087288428 99.59551172645206 L 306 169.95495128834867 L 306 162 Z"
         transform="translate(0,0)"
         visibility="visible"
         id="path115" />
      <path
         fill="url(#highcharts-55)"
         d="M 233.71384381150384 232.36942384122645 L 233.71384381150384 240.32437512957512 L 306 169.95495128834867 L 306 162 Z"
         transform="translate(0,0)"
         visibility="visible"
         id="path117" />
      <path
         fill="url(#highcharts-57)"
         d="M 189.02948143039845 135.10299472470498 C 197.42823480096325 116.84061705406712 211.72424609834724 102.92949060307419 233.6944087288428 91.6405604381034 L 233.6944087288428 99.59551172645206 C 211.72424609834724 110.88444189142284 197.42823480096325 124.79556834241578 189.02948143039845 143.05794601305365 Z"
         transform="translate(0,0)"
         visibility="visible"
         id="path119" />
      <path
         fill="url(#highcharts-57)"
         d="M 306 162 C 306 162 306 162 306 162 L 306 169.95495128834867 C 306 169.95495128834867 306 169.95495128834867 306 169.95495128834867 Z"
         transform="translate(0,0)"
         visibility="visible"
         id="path121" />
      <path
         fill="url(#highcharts-55)"
         d="M 189.0291010551505 135.1038218325186 L 189.0291010551505 143.05877312086727 L 306 169.95495128834867 L 306 162 Z"
         transform="translate(0,0)"
         visibility="visible"
         id="path123" />
      <path
         fill="url(#highcharts-53)"
         d="M 305.9749481959455 75.02586771801883 L 305.9749481959455 82.98081900636748 L 306 169.95495128834867 L 306 162 Z"
         transform="translate(0,0)"
         visibility="visible"
         id="path125" />
      <path
         fill="url(#highcharts-55)"
         d="M 233.71384381150384 232.36942384122645 C 200.73266167570853 215.42965971491702 183 190.82420504007442 183 162 L 183 169.95495128834867 C 183 160.34077326301588 184.82447267948814 152.20169219598105 189.0291010551505 143.05877312086727 L 189.0291010551505 135.1038218325186 C 184.82447267948814 144.2467409076324 183 152.3858219746672 183 162 L 183 169.95495128834867 C 183 198.77915632842308 200.73266167570853 223.3846110032657 233.71384381150384 240.32437512957512 Z"
         transform="translate(0,0)"
         visibility="visible"
         id="path127" />
      <path
         fill="url(#highcharts-55)"
         d="M 306 162 C 306 162 306 162 306 162 L 306 169.95495128834867 C 306 169.95495128834867 306 169.95495128834867 306 169.95495128834867 Z"
         transform="translate(0,0)"
         visibility="visible"
         id="path129" />
      <path
         fill="url(#highcharts-53)"
         d="M 429 162 C 429 210.03448788540624 373.93102422918764 248.97413408594537 306 248.97413408594537 C 278.83298992544036 248.97413408594537 255.69540542510316 243.65933566055534 233.71483898905385 232.36993497802024 L 233.71483898905385 240.3248862663689 C 288.6771770248024 268.5539975742952 365.59612436382 259.93252075329525 405.51811642922905 221.06827881835014 C 421.48373998553427 205.52567123709824 429 189.16492833663304 429 169.95495128834867 Z"
         transform="translate(0,0)"
         visibility="visible"
         id="path131" />
      <path
         fill="url(#highcharts-53)"
         d="M 306 162 C 306 162 306 162 306 162 C 306 162 306 162 306 162 C 306 162 306 162 306 162 L 306 169.95495128834867 C 306 169.95495128834867 306 169.95495128834867 306 169.95495128834867 C 306 169.95495128834867 306 169.95495128834867 306 169.95495128834867 C 306 169.95495128834867 306 169.95495128834867 306 169.95495128834867 Z"
         transform="translate(0,0)"
         visibility="visible"
         id="path133" />
      <g
         stroke="#FFFFFF"
         stroke-width="1"
         stroke-linejoin="round"
         id="g137">
        <path
           fill="url(#highcharts-54)"
           d="M 305.9749481959455 75.02586771801883 C 373.90597101614946 75.01608437998335 428.9861617194743 113.94779881036779 428.9999974488094 161.9822856994721 C 429.01383317814447 210.01677258857643 373.95607462425846 248.96434894394568 306.0250518040545 248.97413228198116 C 278.8492341942383 248.9780461080805 255.70253197318374 243.66299591458014 233.71483898905385 232.36993497802024 L 306 162 C 306 162 306 162 306 162 C 306 162 306 162 306 162 C 306 162 306 162 306 162 Z"
           transform="translate(0,0)"
           visibility="visible"
           id="path135" />
      </g>
      <g
         stroke="#FFFFFF"
         stroke-width="1"
         stroke-linejoin="round"
         id="g141">
        <path
           fill="url(#highcharts-56)"
           d="M 233.71384381150384 232.36942384122645 C 189.73194349116142 209.7794810615576 172.2186035039783 171.658067532902 189.0291010551505 135.1038218325186 L 306 162 C 306 162 306 162 306 162 Z"
           transform="translate(0,0)"
           visibility="visible"
           id="path139" />
      </g>
      <g
         stroke="#FFFFFF"
         stroke-width="1"
         stroke-linejoin="round"
         id="g145">
        <path
           fill="url(#highcharts-58)"
           d="M 189.02948143039845 135.10299472470498 C 197.42823480096325 116.84061705406712 211.72424609834724 102.92949060307419 233.6944087288428 91.6405604381034 L 306 162 C 306 162 306 162 306 162 Z"
           transform="translate(0,0)"
           visibility="visible"
           id="path143" />
      </g>
      <g
         stroke="#FFFFFF"
         stroke-width="1"
         stroke-linejoin="round"
         id="g149">
        <path
           fill="url(#highcharts-60)"
           d="M 233.69540376519473 91.64004916388237 C 244.68038997895047 85.99575163814565 255.0495883410288 82.25841215834785 267.9628689321313 79.28912810238977 L 306 162 C 306 162 306 162 306 162 Z"
           transform="translate(0,0)"
           visibility="visible"
           id="path147" />
      </g>
      <g
         stroke="#FFFFFF"
         stroke-width="1"
         stroke-linejoin="round"
         id="g153">
        <path
           fill="url(#highcharts-62)"
           d="M 267.964038642401 79.28885914339217 C 280.8773612248757 76.31966639826528 292.3720417381113 75.02970373499151 305.95092541398515 75.02587283655843 L 306 162 C 306 162 306 162 306 162 Z"
           transform="translate(0,0)"
           visibility="visible"
           id="path151" />
      </g>
    </g>
    <g
       class="highcharts-markers highcharts-series-0"
       transform="translate(10,10) scale(1 1)"
       id="g157" />
  </g>
  <g
     class="highcharts-data-labels highcharts-series-0"
     transform="translate(10,10) scale(1 1)"
     opacity="1"
     id="g201">
    <path
       fill="none"
       d="M 459.6674146905026 198.15245232680806 C 454.6674146905026 198.15245232680806 443.9031948627972 195.68031637180846 433.44157318355053 192.28112943368404 L 422.97995150430387 188.88194249555963"
       stroke="url(#highcharts-47)"
       stroke-width="1"
       id="path161" />
    <path
       fill="none"
       d="M 152.33181333898 198.14927765425085 C 157.33181333898 198.14927765425085 168.09680513720275 195.67714169925125 178.55842681644944 192.27795476112684 L 189.02004849569613 188.87876782300242"
       stroke="url(#highcharts-48)"
       stroke-width="1"
       id="path163" />
    <path
       fill="none"
       d="M 164.06593740051383 93.75 C 169.06593740051383 93.75 188.69253581563265 97.94919960052918 197.59172275375707 104.41483737574639 L 206.49090969188148 110.88047515096359"
       stroke="url(#highcharts-49)"
       stroke-width="1"
       id="path165" />
    <path
       fill="none"
       d="M 176.86324640240508 72.5625 C 181.86324640240508 72.5625 240.1713775377657 64.90088054320447 245.1652730349007 74.7019523092765 L 250.15916853203572 84.50302407534855"
       stroke="url(#highcharts-50)"
       stroke-width="1"
       id="path167" />
    <path
       fill="none"
       d="M 200.69798461711798 46.464266522724245 C 205.69798461711798 46.464266522724245 283.31700256916645 54.36577324748535 285.037781684609 65.23034499403187 L 286.75856080005155 76.09491674057838"
       stroke="url(#highcharts-51)"
       stroke-width="1"
       id="path169" />
    <g
       style="cursor:pointer;fill:#ffffff"
       transform="translate(465,188)"
       id="g175">
      <text
         x="5"
         style="font-size:10px;font-weight:bold;font-family:'arial', sans-serif;color:#000;text-shadow:none;fill:#ffffff;text-rendering:geometricprecision"
         y="15"
         id="text173"><tspan
           id="tspan171"
           style="fill:#ffffff">Initial Liquidity: 60.0%</tspan></text>
    </g>
    <g
       style="cursor:pointer;fill:#ffffff"
       transform="translate(0,188)"
       id="g181">
      <text
         x="5"
         style="font-size:10px;font-weight:bold;font-family:'arial', sans-serif;color:#000;text-shadow:none;fill:#ffffff;text-rendering:geometricprecision"
         y="15"
         id="text179"><tspan
           id="tspan177"
           style="fill:#ffffff">Product Development: 20.0%</tspan></text>
    </g>
    <g
       style="cursor:pointer;fill:#ffffff"
       transform="translate(28,84)"
       id="g187">
      <text
         x="5"
         style="font-size:10px;font-weight:bold;font-family:'arial', sans-serif;color:#000;text-shadow:none;fill:#ffffff;text-rendering:geometricprecision"
         y="15"
         id="text185"><tspan
           id="tspan183"
           style="fill:#ffffff">Marketing &amp; Sales: 10.0%</tspan></text>
    </g>
    <g
       style="cursor:pointer;"
       transform="translate(57,63)"
       id="g193">
      <text
         x="5"
         style="font-size:10px;font-weight:bold;font-family:'arial', sans-serif;color:#000;text-shadow:none;fill:#ffffff;text-rendering:geometricprecision"
         y="15"
         id="text191"><tspan
           id="tspan189"
           style="fill:#ffffff">Legal Expenses: 5.0%</tspan></text>
    </g>
    <g
       style="cursor:pointer;fill:#ffffff"
       transform="translate(61,36)"
       id="g199">
      <text
         x="5"
         style="font-size:10px;font-weight:bold;font-family:'arial', sans-serif;color:#000;text-shadow:none;fill:#ffffff;text-rendering:geometricprecision"
         y="15"
         id="text197"><tspan
           id="tspan195"
           style="fill:#ffffff">Overhead Expenses: 5.0%</tspan></text>
    </g>
  </g>
  <g
     class="highcharts-legend"
     transform="translate(18,346)"
     id="g247">
    <g
       id="g245">
      <g
         id="g243">
        <g
           class="highcharts-legend-item"
           transform="translate(8,3)"
           id="g209">
          <text
             x="21"
             style="color:#333;font-size:9pt;font-weight:normal;cursor:pointer;font-family:'lucida grande', 'lucida sans unicode', arial, helvetica, sans-serif;text-transform:none;fill:#ffffff"
             text-anchor="start"
             y="15"
             id="text205"><tspan
               id="tspan203"
               style="fill:#ffffff">Initial Liquidity</tspan></text>
          <rect
             x="0"
             y="4"
             width="16"
             height="12"
             fill="url(#highcharts-47)"
             id="rect207" />
        </g>
        <g
           class="highcharts-legend-item"
           transform="translate(135.34375,3)"
           id="g217">
          <text
             x="21"
             y="15"
             style="color:#333;font-size:9pt;font-weight:normal;cursor:pointer;font-family:'lucida grande', 'lucida sans unicode', arial, helvetica, sans-serif;text-transform:none;fill:#ffffff"
             text-anchor="start"
             id="text213"><tspan
               id="tspan211"
               style="fill:#ffffff">Product Development</tspan></text>
          <rect
             x="0"
             y="4"
             width="16"
             height="12"
             fill="url(#highcharts-48)"
             id="rect215" />
        </g>
        <g
           class="highcharts-legend-item"
           transform="translate(301.484375,3)"
           id="g225">
          <text
             x="21"
             y="15"
             style="color:#333;font-size:9pt;font-weight:normal;cursor:pointer;font-family:'lucida grande', 'lucida sans unicode', arial, helvetica, sans-serif;text-transform:none;fill:#ffffff"
             text-anchor="start"
             id="text221"><tspan
               id="tspan219"
               style="fill:#ffffff">Marketing &amp; Sales</tspan></text>
          <rect
             x="0"
             y="4"
             width="16"
             height="12"
             fill="url(#highcharts-49)"
             id="rect223" />
        </g>
        <g
           class="highcharts-legend-item"
           transform="translate(446.265625,3)"
           id="g233">
          <text
             x="21"
             y="15"
             style="color:#333;font-size:9pt;font-weight:normal;cursor:pointer;font-family:'lucida grande', 'lucida sans unicode', arial, helvetica, sans-serif;text-transform:none;fill:#ffffff"
             text-anchor="start"
             id="text229"><tspan
               id="tspan227"
               style="fill:#ffffff">Legal Expenses</tspan></text>
          <rect
             x="0"
             y="4"
             width="16"
             height="12"
             fill="url(#highcharts-50)"
             id="rect231" />
        </g>
        <g
           class="highcharts-legend-item"
           transform="translate(8,17)"
           id="g241">
          <text
             x="21"
             y="15"
             style="color:#333;font-size:9pt;font-weight:normal;cursor:pointer;font-family:'lucida grande', 'lucida sans unicode', arial, helvetica, sans-serif;text-transform:none;fill:#ffffff"
             text-anchor="start"
             id="text237"><tspan
               id="tspan235"
               style="fill:#ffffff">Overhead Expenses</tspan></text>
          <rect
             x="0"
             y="4"
             width="16"
             height="12"
             fill="url(#highcharts-51)"
             id="rect239" />
        </g>
      </g>
    </g>
  </g>
  <g
     class="highcharts-tooltip"
     display="none"
     style="cursor:default;padding:0;pointer-events:none;white-space:nowrap;"
     transform="translate(0,0)"
     id="g259">
    <path
       fill="none"
       d="M 3.5 0.5 L 13.5 0.5 C 16.5 0.5 16.5 0.5 16.5 3.5 L 16.5 13.5 C 16.5 16.5 16.5 16.5 13.5 16.5 L 3.5 16.5 C 0.5 16.5 0.5 16.5 0.5 13.5 L 0.5 3.5 C 0.5 0.5 0.5 0.5 3.5 0.5"
       stroke="black"
       stroke-opacity="0.049999999999999996"
       stroke-width="5"
       transform="translate(1, 1)"
       id="path249" />
    <path
       fill="none"
       d="M 3.5 0.5 L 13.5 0.5 C 16.5 0.5 16.5 0.5 16.5 3.5 L 16.5 13.5 C 16.5 16.5 16.5 16.5 13.5 16.5 L 3.5 16.5 C 0.5 16.5 0.5 16.5 0.5 13.5 L 0.5 3.5 C 0.5 0.5 0.5 0.5 3.5 0.5"
       stroke="black"
       stroke-opacity="0.09999999999999999"
       stroke-width="3"
       transform="translate(1, 1)"
       id="path251" />
    <path
       fill="none"
       d="M 3.5 0.5 L 13.5 0.5 C 16.5 0.5 16.5 0.5 16.5 3.5 L 16.5 13.5 C 16.5 16.5 16.5 16.5 13.5 16.5 L 3.5 16.5 C 0.5 16.5 0.5 16.5 0.5 13.5 L 0.5 3.5 C 0.5 0.5 0.5 0.5 3.5 0.5"
       stroke="black"
       stroke-opacity="0.15"
       stroke-width="1"
       transform="translate(1, 1)"
       id="path253" />
    <path
       fill="rgb(249, 249, 249)"
       fill-opacity=" .85"
       d="M 3.5 0.5 L 13.5 0.5 C 16.5 0.5 16.5 0.5 16.5 3.5 L 16.5 13.5 C 16.5 16.5 16.5 16.5 13.5 16.5 L 3.5 16.5 C 0.5 16.5 0.5 16.5 0.5 13.5 L 0.5 3.5 C 0.5 0.5 0.5 0.5 3.5 0.5"
       id="path255" />
    <text
       x="8"
       style="font-size:12px;color:#000000;fill:#000000;"
       y="20"
       id="text257" />
  </g>
  <text
     x="590"
     text-anchor="end"
     style="cursor:pointer;color:#909090;font-size:9px;fill:#909090;"
     y="395"
     id="text261">meta-chart.com</text>
</svg>
