<?xml version="1.0" encoding="UTF-8" standalone="no"?>
<svg
   version="1.1"
   style="font-family:'unica one', sans-serif;font-size:12px;"
   width="600"
   height="400"
   id="svg296"
   sodipodi:docname="token_chart.svg"
   inkscape:version="1.1.2 (b8e25be8, 2022-02-05)"
   xmlns:inkscape="http://www.inkscape.org/namespaces/inkscape"
   xmlns:sodipodi="http://sodipodi.sourceforge.net/DTD/sodipodi-0.dtd"
   xmlns="http://www.w3.org/2000/svg"
   xmlns:svg="http://www.w3.org/2000/svg">
  <sodipodi:namedview
     id="namedview298"
     pagecolor="#ffffff"
     bordercolor="#666666"
     borderopacity="1.0"
     inkscape:pageshadow="2"
     inkscape:pageopacity="0.0"
     inkscape:pagecheckerboard="0"
     showgrid="false"
     inkscape:zoom="1.28"
     inkscape:cx="297.65625"
     inkscape:cy="225.78125"
     inkscape:window-width="1920"
     inkscape:window-height="1080"
     inkscape:window-x="1440"
     inkscape:window-y="0"
     inkscape:window-maximized="0"
     inkscape:current-layer="g274" />
  <desc
     id="desc9">Created with Highcharts 4.2.7</desc>
  <defs
     id="defs104">
    <radialGradient
       cx="0.5"
       cy="0.3"
       r="0.7"
       id="highcharts-202">
      <stop
         offset="0"
         stop-color="#d00000"
         stop-opacity="1"
         id="stop11" />
      <stop
         offset="1"
         stop-color="rgb(132,0,0)"
         stop-opacity="1"
         id="stop13" />
    </radialGradient>
    <radialGradient
       cx="0.5"
       cy="0.3"
       r="0.7"
       id="highcharts-203">
      <stop
         offset="0"
         stop-color="#c4ed1b"
         stop-opacity="1"
         id="stop16" />
      <stop
         offset="1"
         stop-color="rgb(120,161,0)"
         stop-opacity="1"
         id="stop18" />
    </radialGradient>
    <radialGradient
       cx="0.5"
       cy="0.3"
       r="0.7"
       id="highcharts-204">
      <stop
         offset="0"
         stop-color="#631adf"
         stop-opacity="1"
         id="stop21" />
      <stop
         offset="1"
         stop-color="rgb(23,0,147)"
         stop-opacity="1"
         id="stop23" />
    </radialGradient>
    <radialGradient
       cx="0.5"
       cy="0.3"
       r="0.7"
       id="highcharts-205">
      <stop
         offset="0"
         stop-color="#24CBE5"
         stop-opacity="1"
         id="stop26" />
      <stop
         offset="1"
         stop-color="rgb(0,127,153)"
         stop-opacity="1"
         id="stop28" />
    </radialGradient>
    <radialGradient
       cx="0.5"
       cy="0.3"
       r="0.7"
       id="highcharts-206">
      <stop
         offset="0"
         stop-color="#0fc823"
         stop-opacity="1"
         id="stop31" />
      <stop
         offset="1"
         stop-color="rgb(0,124,0)"
         stop-opacity="1"
         id="stop33" />
    </radialGradient>
    <radialGradient
       cx="0.5"
       cy="0.3"
       r="0.7"
       id="highcharts-207">
      <stop
         offset="0"
         stop-color="#0e0ae5"
         stop-opacity="1"
         id="stop36" />
      <stop
         offset="1"
         stop-color="rgb(0,0,153)"
         stop-opacity="1"
         id="stop38" />
    </radialGradient>
    <clipPath
       id="highcharts-208">
      <rect
         x="0"
         y="0"
         width="600"
         height="400"
         id="rect41" />
    </clipPath>
    <radialGradient
       cx="0.5"
       cy="0.3"
       r="0.7"
       id="highcharts-209">
      <stop
         offset="0"
         stop-color="rgb(183,0,0)"
         stop-opacity="1"
         id="stop44" />
      <stop
         offset="1"
         stop-color="rgb(107,0,0)"
         stop-opacity="1"
         id="stop46" />
    </radialGradient>
    <radialGradient
       cx="286.5"
       cy="108.5"
       r="210"
       id="highcharts-210"
       gradientUnits="userSpaceOnUse">
      <stop
         offset="0"
         stop-color="#d00000"
         stop-opacity="1"
         id="stop49" />
      <stop
         offset="1"
         stop-color="rgb(132,0,0)"
         stop-opacity="1"
         id="stop51" />
    </radialGradient>
    <radialGradient
       cx="0.5"
       cy="0.3"
       r="0.7"
       id="highcharts-211">
      <stop
         offset="0"
         stop-color="rgb(171,212,2)"
         stop-opacity="1"
         id="stop54" />
      <stop
         offset="1"
         stop-color="rgb(95,136,0)"
         stop-opacity="1"
         id="stop56" />
    </radialGradient>
    <radialGradient
       cx="286.5"
       cy="108.5"
       r="210"
       id="highcharts-212"
       gradientUnits="userSpaceOnUse">
      <stop
         offset="0"
         stop-color="#c4ed1b"
         stop-opacity="1"
         id="stop59" />
      <stop
         offset="1"
         stop-color="rgb(120,161,0)"
         stop-opacity="1"
         id="stop61" />
    </radialGradient>
    <radialGradient
       cx="0.5"
       cy="0.3"
       r="0.7"
       id="highcharts-213">
      <stop
         offset="0"
         stop-color="rgb(74,1,198)"
         stop-opacity="1"
         id="stop64" />
      <stop
         offset="1"
         stop-color="rgb(0,0,122)"
         stop-opacity="1"
         id="stop66" />
    </radialGradient>
    <radialGradient
       cx="286.5"
       cy="108.5"
       r="210"
       id="highcharts-214"
       gradientUnits="userSpaceOnUse">
      <stop
         offset="0"
         stop-color="#631adf"
         stop-opacity="1"
         id="stop69" />
      <stop
         offset="1"
         stop-color="rgb(23,0,147)"
         stop-opacity="1"
         id="stop71" />
    </radialGradient>
    <radialGradient
       cx="0.5"
       cy="0.3"
       r="0.7"
       id="highcharts-215">
      <stop
         offset="0"
         stop-color="rgb(11,178,204)"
         stop-opacity="1"
         id="stop74" />
      <stop
         offset="1"
         stop-color="rgb(0,102,128)"
         stop-opacity="1"
         id="stop76" />
    </radialGradient>
    <radialGradient
       cx="286.5"
       cy="108.5"
       r="210"
       id="highcharts-216"
       gradientUnits="userSpaceOnUse">
      <stop
         offset="0"
         stop-color="#24CBE5"
         stop-opacity="1"
         id="stop79" />
      <stop
         offset="1"
         stop-color="rgb(0,127,153)"
         stop-opacity="1"
         id="stop81" />
    </radialGradient>
    <radialGradient
       cx="0.5"
       cy="0.3"
       r="0.7"
       id="highcharts-217">
      <stop
         offset="0"
         stop-color="rgb(0,175,10)"
         stop-opacity="1"
         id="stop84" />
      <stop
         offset="1"
         stop-color="rgb(0,99,0)"
         stop-opacity="1"
         id="stop86" />
    </radialGradient>
    <radialGradient
       cx="286.5"
       cy="108.5"
       r="210"
       id="highcharts-218"
       gradientUnits="userSpaceOnUse">
      <stop
         offset="0"
         stop-color="#0fc823"
         stop-opacity="1"
         id="stop89" />
      <stop
         offset="1"
         stop-color="rgb(0,124,0)"
         stop-opacity="1"
         id="stop91" />
    </radialGradient>
    <radialGradient
       cx="0.5"
       cy="0.3"
       r="0.7"
       id="highcharts-219">
      <stop
         offset="0"
         stop-color="rgb(0,0,204)"
         stop-opacity="1"
         id="stop94" />
      <stop
         offset="1"
         stop-color="rgb(0,0,128)"
         stop-opacity="1"
         id="stop96" />
    </radialGradient>
    <radialGradient
       cx="286.5"
       cy="108.5"
       r="210"
       id="highcharts-220"
       gradientUnits="userSpaceOnUse">
      <stop
         offset="0"
         stop-color="#0e0ae5"
         stop-opacity="1"
         id="stop99" />
      <stop
         offset="1"
         stop-color="rgb(0,0,153)"
         stop-opacity="1"
         id="stop101" />
    </radialGradient>
  </defs>
  <rect
     x="10"
     y="10"
     width="580"
     height="337"
     stroke="#026FC1"
     stroke-width="2"
     fill="none"
     id="rect108" />
  <g
     class="highcharts-series-group"
     id="g186">
    <g
       class="highcharts-series highcharts-series-0"
       transform="translate(10,10) scale(1 1)"
       id="g182">
      <path
         fill="url(#highcharts-209)"
         d="M 374.7269726493858 254.2787890364644 L 374.7269726493858 262.233740324813 L 286.5 176.45495128834867 L 286.5 168.5 Z"
         transform="translate(0,0)"
         visibility="visible"
         id="path110" />
      <path
         fill="url(#highcharts-219)"
         d="M 198.32366312828623 82.69518190717362 L 198.32366312828623 90.65013319552227 L 286.5 176.45495128834867 L 286.5 168.5 Z"
         transform="translate(0,0)"
         visibility="visible"
         id="path112" />
      <path
         fill="url(#highcharts-219)"
         d="M 286.44015294388436 62.43399126409565 L 286.44015294388436 70.3889425524443 L 286.5 176.45495128834867 L 286.5 168.5 Z"
         transform="translate(0,0)"
         visibility="visible"
         id="path114" />
      <path
         fill="url(#highcharts-217)"
         d="M 136.50001244483215 168.4567943898525 L 136.50001244483215 176.41174567820116 L 286.5 176.45495128834867 L 286.5 168.5 Z"
         transform="translate(0,0)"
         visibility="visible"
         id="path116" />
      <path
         fill="url(#highcharts-219)"
         d="M 198.32366312828623 82.69518190717362 C 225.11673907826003 68.92838335608027 253.3203970730977 62.44333506759952 286.44015294388436 62.43399126409565 L 286.44015294388436 70.3889425524443 C 253.3203970730977 70.39828635594817 225.11673907826003 76.88333464442893 198.32366312828623 90.65013319552227 Z"
         transform="translate(0,0)"
         visibility="visible"
         id="path118" />
      <path
         fill="url(#highcharts-219)"
         d="M 286.5 168.5 C 286.5 168.5 286.5 168.5 286.5 168.5 L 286.5 176.45495128834867 C 286.5 176.45495128834867 286.5 176.45495128834867 286.5 176.45495128834867 Z"
         transform="translate(0,0)"
         visibility="visible"
         id="path120" />
      <path
         fill="url(#highcharts-217)"
         d="M 198.32244966932046 82.69580541232125 L 198.32244966932046 90.6507567006699 L 286.5 176.45495128834867 L 286.5 168.5 Z"
         transform="translate(0,0)"
         visibility="visible"
         id="path122" />
      <path
         fill="url(#highcharts-215)"
         d="M 165.17162421008072 230.86756059114435 L 165.17162421008072 238.82251187949302 L 286.5 176.45495128834867 L 286.5 168.5 Z"
         transform="translate(0,0)"
         visibility="visible"
         id="path124" />
      <path
         fill="url(#highcharts-217)"
         d="M 136.50001244483215 168.4567943898525 C 136.52024937379036 133.32780209552445 158.13291446175245 103.34639703293666 198.32244966932046 82.69580541232125 L 198.32244966932046 90.6507567006699 C 158.13291446175245 111.30134832128532 136.52024937379036 141.28275338387311 136.50001244483215 176.41174567820116 Z"
         transform="translate(0,0)"
         visibility="visible"
         id="path126" />
      <path
         fill="url(#highcharts-217)"
         d="M 286.5 168.5 C 286.5 168.5 286.5 168.5 286.5 168.5 L 286.5 176.45495128834867 C 286.5 176.45495128834867 286.5 176.45495128834867 286.5 176.45495128834867 Z"
         transform="translate(0,0)"
         visibility="visible"
         id="path128" />
      <path
         fill="url(#highcharts-215)"
         d="M 136.50001184131256 168.45785504993842 L 136.50001184131256 176.41280633828708 L 286.5 176.45495128834867 L 286.5 168.5 Z"
         transform="translate(0,0)"
         visibility="visible"
         id="path130" />
      <path
         fill="url(#highcharts-213)"
         d="M 198.34615098963883 254.31637053808103 L 198.34615098963883 262.2713218264297 L 286.5 176.45495128834867 L 286.5 168.5 Z"
         transform="translate(0,0)"
         visibility="visible"
         id="path132" />
      <path
         fill="url(#highcharts-215)"
         d="M 165.17162421008072 230.86756059114435 C 145.67828542053277 211.90662070796486 136.5 191.94168018371536 136.5 168.5 L 136.5 176.45495128834867 C 136.5 176.44013331773286 136.5000035146108 176.42762430773314 136.50001184131256 176.41280633828708 L 136.50001184131256 168.45785504993842 C 136.5000035146108 168.47267301938447 136.5 168.4851820293842 136.5 168.5 L 136.5 176.45495128834867 C 136.5 199.89663147206403 145.67828542053277 219.86157199631353 165.17162421008072 238.82251187949302 Z"
         transform="translate(0,0)"
         visibility="visible"
         id="path134" />
      <path
         fill="url(#highcharts-215)"
         d="M 286.5 168.5 C 286.5 168.5 286.5 168.5 286.5 168.5 L 286.5 176.45495128834867 C 286.5 176.45495128834867 286.5 176.45495128834867 286.5 176.45495128834867 Z"
         transform="translate(0,0)"
         visibility="visible"
         id="path136" />
      <path
         fill="url(#highcharts-209)"
         d="M 286.46944901944573 62.433985021974195 L 286.46944901944573 70.38893631032285 L 286.5 176.45495128834867 L 286.5 168.5 Z"
         transform="translate(0,0)"
         visibility="visible"
         id="path138" />
      <path
         fill="url(#highcharts-211)"
         d="M 198.34736462079735 254.3169938756344 L 198.34736462079735 262.27194516398305 L 286.5 176.45495128834867 L 286.5 168.5 Z"
         transform="translate(0,0)"
         visibility="visible"
         id="path140" />
      <path
         fill="url(#highcharts-213)"
         d="M 165.17250622664753 230.8684185091987 L 165.17250622664753 238.82336979754737 L 286.5 176.45495128834867 L 286.5 168.5 Z"
         transform="translate(0,0)"
         visibility="visible"
         id="path142" />
      <path
         fill="url(#highcharts-211)"
         d="M 374.72575954970625 254.2794128910819 L 374.72575954970625 262.23436417943054 L 286.5 176.45495128834867 L 286.5 168.5 Z"
         transform="translate(0,0)"
         visibility="visible"
         id="path144" />
      <path
         fill="url(#highcharts-209)"
         d="M 436.5 168.5 C 436.5 203.62899520882436 414.9046082371287 233.6166230398687 374.7269726493858 254.2787890364644 L 374.7269726493858 262.233740324813 C 414.9046082371287 241.57157432821737 436.5 211.58394649717303 436.5 176.45495128834867 Z"
         transform="translate(0,0)"
         visibility="visible"
         id="path146" />
      <path
         fill="url(#highcharts-209)"
         d="M 286.5 168.5 C 286.5 168.5 286.5 168.5 286.5 168.5 C 286.5 168.5 286.5 168.5 286.5 168.5 L 286.5 176.45495128834867 C 286.5 176.45495128834867 286.5 176.45495128834867 286.5 176.45495128834867 C 286.5 176.45495128834867 286.5 176.45495128834867 286.5 176.45495128834867 Z"
         transform="translate(0,0)"
         visibility="visible"
         id="path148" />
      <path
         fill="url(#highcharts-213)"
         d="M 198.34615098963883 254.31637053808103 C 184.94802270681654 247.43483633744006 174.90981003877025 240.33957952204622 165.17250622664753 230.8684185091987 L 165.17250622664753 238.82336979754737 C 174.90981003877025 248.2945308103949 184.94802270681654 255.38978762578873 198.34615098963883 262.2713218264297 Z"
         transform="translate(0,0)"
         visibility="visible"
         id="path150" />
      <path
         fill="url(#highcharts-213)"
         d="M 286.5 168.5 C 286.5 168.5 286.5 168.5 286.5 168.5 L 286.5 176.45495128834867 C 286.5 176.45495128834867 286.5 176.45495128834867 286.5 176.45495128834867 Z"
         transform="translate(0,0)"
         visibility="visible"
         id="path152" />
      <path
         fill="url(#highcharts-211)"
         d="M 374.72575954970625 254.2794128910819 C 321.11239480445204 281.85059615781455 251.98421802101424 281.86532531409745 198.34736462079735 254.3169938756344 L 198.34736462079735 262.27194516398305 C 251.98421802101424 289.8202766024461 321.11239480445204 289.8055474461632 374.72575954970625 262.23436417943054 Z"
         transform="translate(0,0)"
         visibility="visible"
         id="path154" />
      <path
         fill="url(#highcharts-211)"
         d="M 286.5 168.5 C 286.5 168.5 286.5 168.5 286.5 168.5 L 286.5 176.45495128834867 C 286.5 176.45495128834867 286.5 176.45495128834867 286.5 176.45495128834867 Z"
         transform="translate(0,0)"
         visibility="visible"
         id="path156" />
      <g
         stroke="#FFFFFF"
         stroke-width="1"
         stroke-linejoin="round"
         id="g160">
        <path
           fill="url(#highcharts-210)"
           d="M 286.46944901944573 62.433985021974195 C 369.312159775792 62.42205412193093 436.48312404813936 109.89975464678997 436.4999968887919 168.47839719447816 C 436.5101175412537 203.6149871214431 414.9132952803177 233.61215555128294 374.7269726493858 254.2787890364644 L 286.5 168.5 C 286.5 168.5 286.5 168.5 286.5 168.5 C 286.5 168.5 286.5 168.5 286.5 168.5 Z"
           transform="translate(0,0)"
           visibility="visible"
           id="path158" />
      </g>
      <g
         stroke="#FFFFFF"
         stroke-width="1"
         stroke-linejoin="round"
         id="g164">
        <path
           fill="url(#highcharts-212)"
           d="M 374.72575954970625 254.2794128910819 C 321.11239480445204 281.85059615781455 251.98421802101424 281.86532531409745 198.34736462079735 254.3169938756344 L 286.5 168.5 C 286.5 168.5 286.5 168.5 286.5 168.5 Z"
           transform="translate(0,0)"
           visibility="visible"
           id="path162" />
      </g>
      <g
         stroke="#FFFFFF"
         stroke-width="1"
         stroke-linejoin="round"
         id="g168">
        <path
           fill="url(#highcharts-214)"
           d="M 198.34615098963883 254.31637053808103 C 184.94802270681654 247.43483633744006 174.90981003877025 240.33957952204622 165.17250622664753 230.8684185091987 L 286.5 168.5 C 286.5 168.5 286.5 168.5 286.5 168.5 Z"
           transform="translate(0,0)"
           visibility="visible"
           id="path166" />
      </g>
      <g
         stroke="#FFFFFF"
         stroke-width="1"
         stroke-linejoin="round"
         id="g172">
        <path
           fill="url(#highcharts-216)"
           d="M 165.17162421008072 230.86756059114435 C 145.66596327812982 211.89463510591605 136.48683086873478 191.91435135256478 136.50001184131256 168.45785504993842 L 286.5 168.5 C 286.5 168.5 286.5 168.5 286.5 168.5 Z"
           transform="translate(0,0)"
           visibility="visible"
           id="path170" />
      </g>
      <g
         stroke="#FFFFFF"
         stroke-width="1"
         stroke-linejoin="round"
         id="g176">
        <path
           fill="url(#highcharts-218)"
           d="M 136.50001244483215 168.4567943898525 C 136.52024937379036 133.32780209552445 158.13291446175245 103.34639703293666 198.32244966932046 82.69580541232125 L 286.5 168.5 C 286.5 168.5 286.5 168.5 286.5 168.5 Z"
           transform="translate(0,0)"
           visibility="visible"
           id="path174" />
      </g>
      <g
         stroke="#FFFFFF"
         stroke-width="1"
         stroke-linejoin="round"
         id="g180">
        <path
           fill="url(#highcharts-220)"
           d="M 198.32366312828623 82.69518190717362 C 225.11673907826003 68.92838335608027 253.3203970730977 62.44333506759952 286.44015294388436 62.43399126409565 L 286.5 168.5 C 286.5 168.5 286.5 168.5 286.5 168.5 Z"
           transform="translate(0,0)"
           visibility="visible"
           id="path178" />
      </g>
    </g>
    <g
       class="highcharts-markers highcharts-series-0"
       transform="translate(10,10) scale(1 1)"
       id="g184" />
  </g>
  <g
     class="highcharts-data-labels highcharts-series-0"
     transform="translate(10,10) scale(1 1)"
     opacity="1"
     id="g236">
    <path
       fill="none"
       d="M 466.52362989103676 126.4675247009483 C 461.52362989103676 126.4675247009483 450.0817208027663 128.93966065594788 439.62009912351965 132.3388475940723 L 429.158477444273 135.7380345321967"
       stroke="url(#highcharts-202)"
       stroke-width="1"
       id="path188" />
    <path
       fill="none"
       d="M 163.66096383454962 304.56601910689415 C 168.66096383454962 304.56601910689415 286.5 296.56601910689415 286.5 285.56601910689415 L 286.5 274.56601910689415"
       stroke="url(#highcharts-203)"
       stroke-width="1"
       id="path190" />
    <path
       fill="none"
       d="M 129.36787984681234 264.70716198753644 C 134.36787984681234 264.70716198753644 164.87763363591372 259.0503077380441 172.65580822896575 251.27213314499207 L 180.43398282201778 243.49395855194004"
       stroke="url(#highcharts-204)"
       stroke-width="1"
       id="path192" />
    <path
       fill="none"
       d="M 106.48045831444497 210.5494949812512 C 111.48045831444497 210.5494949812512 122.91827919723355 208.07735902625163 133.37990087648024 204.6781720881272 L 143.84152255572693 201.2789851500028"
       stroke="url(#highcharts-205)"
       stroke-width="1"
       id="path194" />
    <path
       fill="none"
       d="M 112.42915481745942 106.73391457068531 C 117.42915481745942 106.73391457068531 133.24687783960076 110.36583856860169 143.0479496056728 115.35973406573672 L 152.84902137174487 120.35362956287175"
       stroke="url(#highcharts-206)"
       stroke-width="1"
       id="path196" />
    <path
       fill="none"
       d="M 156.3874207822945 39.09040792316297 C 161.3874207822945 39.09040792316297 233.3490769675093 46.6988600535242 236.7482639056337 57.1604817327709 L 240.14745084375812 67.6221034120176"
       stroke="url(#highcharts-207)"
       stroke-width="1"
       id="path198" />
    <g
       style="cursor:pointer;fill:#ffffff"
       transform="translate(472,116)"
       id="g204">
      <text
         x="5"
         style="font-size:10px;font-weight:bold;font-family:'arial', sans-serif;color:#000;text-shadow:none;fill:#ffffff;text-rendering:geometricprecision"
         y="15"
         id="text202"><tspan
           id="tspan200"
           style="fill:#ffffff">Liquidity lock: 40.0%</tspan></text>
    </g>
    <g
       style="cursor:pointer;fill:#ffffff"
       transform="translate(96,295)"
       id="g210">
      <text
         x="5"
         style="font-size:10px;font-weight:bold;font-family:'arial', sans-serif;color:#000;text-shadow:none;fill:#ffffff;text-rendering:geometricprecision"
         y="15"
         id="text208"><tspan
           id="tspan206"
           style="fill:#ffffff">IDO: 20.0%</tspan></text>
    </g>
    <g
       style="cursor:pointer;fill:#ffffff"
       transform="translate(49,255)"
       id="g216">
      <text
         x="5"
         style="font-size:10px;font-weight:bold;font-family:'arial', sans-serif;color:#000;text-shadow:none;fill:#ffffff;text-rendering:geometricprecision"
         y="15"
         id="text214"><tspan
           id="tspan212"
           style="fill:#ffffff">Airdrop: 5.0%</tspan></text>
    </g>
    <g
       style="cursor:pointer;fill:#ffffff"
       transform="translate(32,201)"
       id="g222">
      <text
         x="5"
         style="font-size:10px;font-weight:bold;font-family:'arial', sans-serif;color:#000;text-shadow:none;fill:#ffffff;text-rendering:geometricprecision"
         y="15"
         id="text220"><tspan
           id="tspan218"
           style="fill:#ffffff">Team: 10.0%</tspan></text>
    </g>
    <g
       style="cursor:pointer;fill:#ffffff"
       transform="translate(0,97)"
       id="g228">
      <text
         x="5"
         style="font-size:10px;font-weight:bold;font-family:'arial', sans-serif;color:#000;text-shadow:none;fill:#ffffff;text-rendering:geometricprecision"
         y="15"
         id="text226"><tspan
           id="tspan224"
           style="fill:#ffffff">Development: 15.0%</tspan></text>
    </g>
    <g
       style="cursor:pointer;"
       transform="translate(60,29)"
       id="g234">
      <text
         x="5"
         style="font-size:10px;font-weight:bold;font-family:'arial', sans-serif;color:#000;text-shadow:none;fill:#ffffff;text-rendering:geometricprecision"
         y="15"
         id="text232"><tspan
           id="tspan230"
           style="fill:#ffffff">Marketing: 10.0%</tspan></text>
    </g>
  </g>
  <g
     class="highcharts-legend"
     transform="translate(23,359)"
     id="g280">
    <g
       id="g278">
      <g
         id="g276">
        <g
           class="highcharts-legend-item"
           transform="translate(8,3)"
           id="g244">
          <text
             x="21"
             style="color:#333;font-size:9pt;font-weight:normal;cursor:pointer;font-family:'lucida grande', 'lucida sans unicode', arial, helvetica, sans-serif;text-transform:none;fill:#ffffff"
             text-anchor="start"
             y="15"
             id="text240"><tspan
               id="tspan238"
               style="fill:#ffffff">Liquidity lock</tspan></text>
          <rect
             x="0"
             y="4"
             width="16"
             height="12"
             fill="url(#highcharts-202)"
             id="rect242" />
        </g>
        <g
           class="highcharts-legend-item"
           transform="translate(126.921875,3)"
           id="g250">
          <text
             x="21"
             y="15"
             style="color:#333;font-size:9pt;font-weight:normal;cursor:pointer;font-family:'lucida grande', 'lucida sans unicode', arial, helvetica, sans-serif;text-transform:none;fill:#ffffff"
             text-anchor="start"
             id="text246">IDO</text>
          <rect
             x="0"
             y="4"
             width="16"
             height="12"
             fill="url(#highcharts-203)"
             id="rect248" />
        </g>
        <g
           class="highcharts-legend-item"
           transform="translate(189.703125,3)"
           id="g256">
          <text
             x="21"
             y="15"
             style="color:#333;font-size:9pt;font-weight:normal;cursor:pointer;font-family:'lucida grande', 'lucida sans unicode', arial, helvetica, sans-serif;text-transform:none;fill:#ffffff"
             text-anchor="start"
             id="text252">Airdrop</text>
          <rect
             x="0"
             y="4"
             width="16"
             height="12"
             fill="url(#highcharts-204)"
             id="rect254" />
        </g>
        <g
           class="highcharts-legend-item"
           transform="translate(274.75,3)"
           id="g262">
          <text
             x="21"
             y="15"
             style="color:#333;font-size:9pt;font-weight:normal;cursor:pointer;font-family:'lucida grande', 'lucida sans unicode', arial, helvetica, sans-serif;text-transform:none;fill:#ffffff"
             text-anchor="start"
             id="text258">Team</text>
          <rect
             x="0"
             y="4"
             width="16"
             height="12"
             fill="url(#highcharts-205)"
             id="rect260" />
        </g>
        <g
           class="highcharts-legend-item"
           transform="translate(347.859375,3)"
           id="g268">
          <text
             x="21"
             y="15"
             style="color:#333;font-size:9pt;font-weight:normal;cursor:pointer;font-family:'lucida grande', 'lucida sans unicode', arial, helvetica, sans-serif;text-transform:none;fill:#ffffff"
             text-anchor="start"
             id="text264">Development</text>
          <rect
             x="0"
             y="4"
             width="16"
             height="12"
             fill="url(#highcharts-206)"
             id="rect266" />
        </g>
        <g
           class="highcharts-legend-item"
           transform="translate(465.65625,3)"
           id="g274">
          <text
             x="21"
             y="15"
             style="color:#333;font-size:9pt;font-weight:normal;cursor:pointer;font-family:'lucida grande', 'lucida sans unicode', arial, helvetica, sans-serif;text-transform:none;fill:#ffffff"
             text-anchor="start"
             id="text270">Marketing</text>
          <rect
             x="0"
             y="4"
             width="16"
             height="12"
             fill="url(#highcharts-207)"
             id="rect272" />
        </g>
      </g>
    </g>
  </g>
  <g
     class="highcharts-tooltip"
     display="none"
     style="cursor:default;padding:0;pointer-events:none;white-space:nowrap;"
     transform="translate(0,0)"
     id="g292">
    <path
       fill="none"
       d="M 3.5 0.5 L 13.5 0.5 C 16.5 0.5 16.5 0.5 16.5 3.5 L 16.5 13.5 C 16.5 16.5 16.5 16.5 13.5 16.5 L 3.5 16.5 C 0.5 16.5 0.5 16.5 0.5 13.5 L 0.5 3.5 C 0.5 0.5 0.5 0.5 3.5 0.5"
       stroke="black"
       stroke-opacity="0.049999999999999996"
       stroke-width="5"
       transform="translate(1, 1)"
       id="path282" />
    <path
       fill="none"
       d="M 3.5 0.5 L 13.5 0.5 C 16.5 0.5 16.5 0.5 16.5 3.5 L 16.5 13.5 C 16.5 16.5 16.5 16.5 13.5 16.5 L 3.5 16.5 C 0.5 16.5 0.5 16.5 0.5 13.5 L 0.5 3.5 C 0.5 0.5 0.5 0.5 3.5 0.5"
       stroke="black"
       stroke-opacity="0.09999999999999999"
       stroke-width="3"
       transform="translate(1, 1)"
       id="path284" />
    <path
       fill="none"
       d="M 3.5 0.5 L 13.5 0.5 C 16.5 0.5 16.5 0.5 16.5 3.5 L 16.5 13.5 C 16.5 16.5 16.5 16.5 13.5 16.5 L 3.5 16.5 C 0.5 16.5 0.5 16.5 0.5 13.5 L 0.5 3.5 C 0.5 0.5 0.5 0.5 3.5 0.5"
       stroke="black"
       stroke-opacity="0.15"
       stroke-width="1"
       transform="translate(1, 1)"
       id="path286" />
    <path
       fill="rgb(0, 0, 0)"
       fill-opacity=" 0.85"
       d="M 3.5 0.5 L 13.5 0.5 C 16.5 0.5 16.5 0.5 16.5 3.5 L 16.5 13.5 C 16.5 16.5 16.5 16.5 13.5 16.5 L 3.5 16.5 C 0.5 16.5 0.5 16.5 0.5 13.5 L 0.5 3.5 C 0.5 0.5 0.5 0.5 3.5 0.5"
       id="path288" />
    <text
       x="8"
       style="font-size:12px;color:#000000;fill:#000000;"
       y="20"
       id="text290" />
  </g>
</svg>
