<svg width="97" height="120" viewBox="0 0 97 120" fill="none" xmlns="http://www.w3.org/2000/svg">
    <path d="M48.2143 0C30.1554 14.33 18.8357 15 0 15V72.675C0 95.69 17.1589 101.695 48.2143 120C79.2696 101.695 96.4286 95.69 96.4286 72.675V15C77.5928 15 66.2732 14.33 48.2143 0Z" fill="#BFDEFF"/>
    <rect x="25.8457" y="57.231" width="44.3077" height="34.1538" fill="white"/>
    <path d="M62.7689 58.1538V49.0653C62.7689 40.8299 56.1565 34.1538 47.9997 34.1538C39.8429 34.1538 33.2305 40.8299 33.2305 49.0653V58.1538" stroke="#3692FE" stroke-width="3"/>
    <mask id="path-4-inside-1" fill="white">
        <path d="M24.3105 56.0601H71.6916V92.7034H24.3105V56.0601Z"/>
    </mask>
    <path d="M24.3105 56.0601V53.0601H21.3105V56.0601H24.3105ZM71.6916 56.0601H74.6916V53.0601H71.6916V56.0601ZM71.6916 92.7034V95.7034H74.6916V92.7034H71.6916ZM24.3105 92.7034H21.3105V95.7034H24.3105V92.7034ZM24.3105 59.0601H71.6916V53.0601H24.3105V59.0601ZM68.6916 56.0601V92.7034H74.6916V56.0601H68.6916ZM71.6916 89.7034H24.3105V95.7034H71.6916V89.7034ZM27.3105 92.7034V56.0601H21.3105V92.7034H27.3105Z" fill="#3692FE" mask="url(#path-4-inside-1)"/>
    <path fill-rule="evenodd" clip-rule="evenodd" d="M49.9881 77.4904C51.4017 76.7671 52.3693 75.2962 52.3693 73.5992C52.3693 71.1867 50.4136 69.231 48.0011 69.231C45.5885 69.231 43.6328 71.1867 43.6328 73.5992C43.6328 75.2973 44.6018 76.7692 46.017 77.4919V83.9251H49.9881V77.4904Z" fill="#3692FE"/>
</svg>