<?xml version="1.0" encoding="UTF-8"?>
<svg width="162px" height="66px" viewBox="0 0 162 66" version="1.1" xmlns="http://www.w3.org/2000/svg" xmlns:xlink="http://www.w3.org/1999/xlink">
    <title>partners/animocabrands_logo</title>
    <g id="partners/animocabrands_logo" stroke="none" stroke-width="1" fill="none" fill-rule="evenodd">
        <rect id="矩形" stroke="#BFC7D2" stroke-width="0.655092094" fill="#FFFFFF" x="0.327546047" y="0.327546047" width="161.344908" height="65.3449079" rx="7.07539872"></rect>
        <g id="Commonly/AnimocaBrands" transform="translate(38.130183, 9.183435)" fill="#00A9F1">
            <path d="M24.9200456,2.00300736 C24.9200456,2.09320912 24.9199551,2.18350135 24.9200456,2.27370311 C24.9209503,3.0107881 25.1550044,3.19607717 25.8917275,3.08135718 C26.2909857,3.01920211 26.6957627,2.99006974 27.0989111,2.95731845 C28.4905696,2.84440792 28.534811,2.79718093 28.5045024,1.38941826 C28.5031453,1.32934407 28.5056786,1.26881752 28.4997074,1.20910522 C28.4597182,0.804237743 28.2608582,0.568012273 27.8283059,0.602753974 C27.0667027,0.663913842 26.3027472,0.70996469 25.5453057,0.805504367 C25.1479475,0.855716982 24.9057508,1.11510359 24.9194123,1.55181762 C24.9240264,1.7020031 24.9200456,1.85255047 24.9200456,2.00300736 L24.9200456,2.00300736 Z M35.9060227,20.0483352 C35.3221993,21.7261603 34.7384664,23.4040759 34.1314818,25.1484893 C35.3924065,25.0407357 36.577967,24.9394058 37.8196209,24.8332807 C37.2001511,23.1930925 36.6037519,21.6138831 36.0073527,20.0346738 L35.9060227,20.0483352 Z M8.56349005,24.7672353 C9.07583966,24.7323126 9.55380947,24.7171132 10.0273461,24.6631911 C10.6954905,24.5871032 11.3670729,24.515177 12.024451,24.3799196 C12.6039317,24.2605855 13.0231845,23.8799648 13.1826887,23.3026555 C13.4704839,22.2612187 13.1892932,21.4819732 12.0731256,21.4323939 C10.9119024,21.3807337 9.74353172,21.4914729 8.56349005,21.531643 L8.56349005,24.7672353 Z M21.1464998,23.9510768 C22.0412795,23.8697414 22.9141647,23.8382567 23.7686839,23.6961233 C24.3605594,23.597779 24.9618442,23.4154755 25.4958169,23.1456845 C26.0763833,22.8521895 26.271172,22.0866055 26.0895924,21.3532299 C25.9516208,20.7959151 25.4314905,20.3271736 24.807316,20.3370352 C23.5942516,20.3562155 22.3822729,20.4410793 21.1464998,20.4997964 L21.1464998,23.9510768 Z M12.478174,26.483421 C11.5897274,26.405976 10.6859004,26.4922874 9.78940162,26.5242244 C9.37847245,26.5388811 8.96899084,26.5947935 8.56014254,26.6318875 L8.56014254,30.2281059 C9.56475672,30.1500275 10.5287484,30.1167334 11.4790787,29.9846426 C11.9998423,29.912264 12.533815,29.7409078 12.9973091,29.4934637 C13.7251658,29.1047909 13.8700134,28.3848053 13.778545,27.6257354 C13.6981144,26.9584052 13.3175842,26.5565234 12.478174,26.483421 L12.478174,26.483421 Z M72.7770096,18.4933727 C73.3630044,18.7316791 74.0084401,18.831471 74.6333383,18.964738 C76.2059431,19.300122 77.8825921,19.3774766 78.9818412,20.8274903 L78.9818412,16.635325 C78.9597657,16.6324299 78.9377808,16.6295348 78.9157958,16.6265491 C78.8313843,16.8535463 78.7629866,17.0879624 78.6598471,17.3060027 C78.296145,18.0733057 77.1436976,18.3008458 76.7181118,17.436646 C76.6194055,17.2362479 76.5236849,17.0202884 76.3730471,16.8625032 C76.0694191,16.5441281 75.7771003,16.121166 75.3946701,15.9897989 C74.3593855,15.6340584 73.3429194,15.807405 72.4921096,16.5327285 C71.7602721,17.156541 71.8916391,18.1332895 72.7770096,18.4933727 L72.7770096,18.4933727 Z M51.9580455,16.235705 C50.1224352,16.3971092 48.2168891,16.5644845 46.2573305,16.7367455 C48.1005406,19.3731339 49.9138041,21.966638 51.7270675,24.5601422 C51.7609949,24.5512758 51.7948319,24.542319 51.8287594,24.5334526 L51.8287594,24.0628111 C51.8287594,22.0439926 51.8196216,20.0251741 51.8345496,18.0064461 C51.8388019,17.4301319 51.9128994,16.8542701 51.9580455,16.235705 L51.9580455,16.235705 Z M28.0839831,5.48948178 C28.0459844,5.08018112 27.7674175,4.82631338 27.3580263,4.85960751 C26.9096412,4.89615867 26.4606229,4.94447135 26.0174852,5.02037835 C25.4983501,5.10922301 25.372321,5.27904117 25.3717782,5.80948541 C25.3702401,7.46767783 25.3712353,9.12596073 25.3714163,10.7841531 C25.3715972,12.4725636 25.3695163,14.1608836 25.3728638,15.8492941 C25.3737686,16.2972268 25.578057,16.5226859 25.9888052,16.5015152 C26.3928584,16.4807064 26.794107,16.4041661 27.1982507,16.3819097 C27.9268312,16.3415586 28.094478,15.9452861 28.0920614,15.303017 C28.0800023,12.1373605 28.0866068,8.97161348 28.0865164,5.80595696 C28.0865164,5.70046523 28.0936637,5.59415925 28.0839831,5.48948178 L28.0839831,5.48948178 Z M59.5159939,25.9415772 C60.3774795,25.850923 61.2085662,25.7408172 62.0434527,25.6806525 C63.5192512,25.574437 64.3432809,24.7076135 64.7562005,23.3791958 C65.1705676,22.0463449 65.1884813,20.6850855 64.8504735,19.3364018 C64.5103848,17.9797565 63.6403947,17.3312447 62.2410461,17.3433681 C61.4897568,17.3497917 60.7388294,17.4221703 59.9878116,17.4206322 C59.5854773,17.419818 59.4824284,17.5607752 59.484829,17.9501717 C59.5010659,20.4671356 59.4928328,22.9842804 59.4940994,25.5013347 C59.4941899,25.6338779 59.5069466,25.7665116 59.5159939,25.9415772 L59.5159939,25.9415772 Z M68.4723863,12.454469 C69.900234,12.7075225 71.2783214,12.3946662 72.6311669,11.9987556 C74.0481578,11.584117 73.7634387,11.457726 73.7748383,10.4400836 C73.7835238,9.65079564 73.5706404,9.5335424 72.7803572,9.69395134 C71.7566531,9.90167776 70.7226352,10.0805432 69.6844554,10.1869397 C68.9417611,10.2630276 68.4436158,9.72009809 68.4385493,8.97315153 C68.4339352,8.27994603 68.4375541,7.58665006 68.4375541,6.89335409 C68.4375541,6.27542228 68.4839668,5.65323823 68.4266973,5.04064434 C68.3408383,4.12107495 69.0784661,3.28356473 70.170025,3.31188284 C71.1306692,3.33676296 72.0922182,3.32789659 73.0533147,3.33278214 C73.5525457,3.33540587 73.7648863,3.12939844 73.7750193,2.62926271 C73.7800858,2.37313314 73.7622626,2.11591789 73.7797239,1.860874 C73.8084944,1.4436117 73.624291,1.2250285 73.217614,1.13907898 C71.7973661,0.838979443 70.3668946,0.863045309 68.9715268,1.18612503 C67.0704139,1.62618657 65.7735713,3.20268171 65.7312299,5.01585469 C65.6982072,6.43175994 65.7030023,7.84947465 65.7306871,9.26556084 C65.7632574,10.9302673 66.8380788,12.1647739 68.4723863,12.454469 L68.4723863,12.454469 Z M12.9916093,16.7866867 C12.9946854,17.4402649 13.2290109,17.6539626 13.877975,17.6076403 C14.1773508,17.5862886 14.475098,17.5375236 14.7746547,17.5224146 C15.4447896,17.4886681 15.691329,17.2412239 15.6915099,16.5738033 C15.6920528,14.2675515 15.689429,11.9611187 15.693048,9.65486693 C15.6942241,8.85472214 16.2623052,8.18603487 16.9854573,8.1113945 C17.537977,8.0543964 18.0904063,7.99586025 18.6426545,7.93641937 C19.5298345,7.8408797 20.1196292,8.36345278 20.1280432,9.25714684 C20.1314812,9.61885861 20.1291289,9.98066085 20.1291289,10.3423726 C20.1292193,12.2869126 20.1263242,14.2315432 20.1309383,16.1760832 C20.1324764,16.8057765 20.4299522,17.046978 21.0484268,16.9601238 C21.3155037,16.9226679 21.5861089,16.910454 21.8550857,16.8853929 C22.5825805,16.8173571 22.8704662,16.5567038 22.8487526,15.8495655 C22.8131062,14.6899707 22.8391625,13.5284761 22.8391625,12.3677957 C22.8391625,11.2371524 22.8391625,10.1065995 22.8391625,8.97604667 C22.8389815,7.34761993 21.9011365,6.08425246 20.3028374,5.77383898 C18.7495034,5.4722014 17.1705654,5.61542044 15.6935908,6.14812652 C14.1690273,6.6980225 13.1455042,7.80649989 13.0400125,9.50893369 C12.9608484,10.7853293 12.9980329,12.0692342 12.9912474,13.349882 C12.9851857,14.4954534 12.9861809,15.6411153 12.9916093,16.7866867 L12.9916093,16.7866867 Z M7.77664482,15.6139733 C7.77293542,15.7086083 7.53553379,15.8586128 7.39530037,15.8728171 C6.52847684,15.9611189 5.65893912,16.0252644 4.78931093,16.0830768 C4.00237522,16.1353703 3.49373501,15.788858 3.37856265,15.1458651 C3.25434297,14.4524787 3.67839076,13.7400928 4.38218162,13.5504611 C4.75447875,13.4500358 5.15228932,13.4420742 5.53933358,13.3982852 C5.91253544,13.3561247 6.2860992,13.3157736 6.66029626,13.2852842 C7.01685106,13.2561518 7.37449154,13.2408618 7.79419661,13.2158912 C7.79419661,14.0264405 7.8074057,14.8210664 7.77664482,15.6139733 L7.77664482,15.6139733 Z M10.46786,16.9267391 C10.4697599,14.7108701 10.4716599,12.4950914 10.4650553,10.2793128 C10.4640601,9.93542426 10.4662315,9.58004561 10.3851675,9.24999946 C10.0267128,7.78985282 8.71403742,6.72172647 7.20214013,6.77212004 C6.09972445,6.80894262 4.99405173,6.96546122 3.90602128,7.15925477 C2.91172105,7.33631078 2.82939045,7.50766698 2.83011424,8.52069516 C2.83020471,8.64120544 2.82767146,8.76198713 2.83255702,8.88240693 C2.85363727,9.40380386 3.06823965,9.56041293 3.57850837,9.48097748 C4.46514553,9.34291541 5.36517271,9.27415579 6.24113403,9.08850483 C7.2187872,8.88123078 8.04770246,9.75474932 7.72552747,10.8895544 C6.95940059,10.9580426 6.18549302,11.0437207 5.40932362,11.0928476 C4.15771766,11.1721021 2.99269454,11.4532023 1.99540869,12.2824795 C0.49373487,13.5311903 0.17952152,15.8237806 1.38860508,17.2352527 C2.35413485,18.3623676 3.66445789,18.5321857 5.04752138,18.4037138 C6.52802448,18.266285 8.00635622,18.1038857 9.48794499,17.9782184 C10.3003037,17.9093683 10.4671362,17.7612638 10.46786,16.9267391 L10.46786,16.9267391 Z M82.3944895,9.07194824 C81.5955209,9.14523151 80.8223371,9.21715769 80.0488819,9.28655062 C79.7205547,9.31604488 79.3864372,9.3905043 79.0644432,9.35585307 C78.4284168,9.28727441 77.9922456,8.78659583 77.9667321,8.1795208 C77.9416711,7.58538344 78.4756438,6.85209833 79.0840759,6.77184862 C80.168035,6.62899147 81.2602273,6.54937507 82.3944895,6.43890732 L82.3944895,9.07194824 Z M85.0841666,3.13600298 C85.0745765,1.55326519 83.8713737,0.259227314 82.2969594,0.0541246174 C81.0356728,-0.110084202 79.8145563,0.126684107 78.6025776,0.398375063 C77.4507636,0.656585515 77.4546539,0.695488982 77.4608061,1.88430655 C77.4612585,1.97477973 77.4589062,2.06543386 77.464425,2.15563561 C77.494824,2.65016201 77.7571962,2.81355657 78.2471085,2.73502585 C79.2357994,2.57660732 80.2282902,2.43076455 81.2245808,2.33893427 C81.4704869,2.31631598 81.7726673,2.47265363 81.9872697,2.6306198 C82.4767296,2.990884 82.4437974,3.53281834 82.3953942,4.13021274 C81.6559569,4.19263923 80.9522566,4.24258043 80.2507275,4.31378282 C79.2988592,4.4103177 78.3429196,4.47726786 77.4705772,4.94881406 C75.9115434,5.79157172 75.1303075,7.22819533 75.3149633,8.96763266 C75.4834243,10.5553465 77.1784393,11.8061382 79.0210161,11.6640048 C80.8031568,11.5265761 82.5824928,11.353139 84.3625526,11.1889302 C84.9053012,11.1388985 85.0901379,10.928096 85.0904093,10.373043 C85.0918568,7.96075666 85.0987328,5.54828935 85.0841666,3.13600298 L85.0841666,3.13600298 Z M30.570548,15.377386 C30.5704575,15.4070612 30.5819476,15.4366459 30.5841189,15.466502 C30.6132513,15.8620508 30.8462197,16.0258977 31.2194216,16.0017414 C31.6242891,15.9755041 32.027709,15.9284581 32.4318527,15.8929926 C33.0639888,15.8377135 33.2441209,15.6457294 33.2443923,15.0139552 C33.2452065,12.7371977 33.2422209,10.4605306 33.2460208,8.18386352 C33.2476493,7.24330435 33.8263158,6.57235526 34.7095149,6.48776283 C35.1878466,6.44198341 35.6685306,6.41791754 36.1484908,6.39122795 C37.276239,6.32853004 37.6965774,6.71946465 37.6981155,7.83988449 C37.7009201,10.0110598 37.6987488,12.1822352 37.6993821,14.3533201 C37.6993821,14.5039579 37.6927775,14.6563147 37.7124102,14.8047812 C37.7602705,15.1658597 37.9375075,15.3866142 38.3403845,15.3498821 C38.7292383,15.3145976 39.1185444,15.2813939 39.5083933,15.2601327 C40.1274108,15.2264767 40.3905973,14.9551476 40.3907782,14.3281685 C40.3912306,12.06652 40.3900544,9.80496193 40.391321,7.54331341 C40.3919543,6.50974782 40.9977628,5.88819708 42.0210144,5.84612705 C42.4261533,5.82938951 42.8304779,5.78768138 43.2339883,5.74552088 C44.3518749,5.62890095 44.874448,6.08823328 44.8757146,7.20449136 C44.8777955,9.10424716 44.8758051,11.004003 44.8768908,12.9037588 C44.8769812,13.3107071 44.8755337,13.7179269 44.8886523,14.1245134 C44.9016804,14.5252191 45.1163733,14.7357502 45.522055,14.7132224 C45.9871776,14.687528 46.4548335,14.6703381 46.9147991,14.6037498 C47.3735886,14.5373425 47.5492875,14.2922507 47.5496494,13.771668 C47.5520922,11.3592911 47.5363499,8.94691431 47.5487447,6.53462794 C47.5566159,5.00608359 46.4798041,3.98310335 45.2652017,3.5872832 C44.4104111,3.30880675 43.5462113,3.4331169 42.675045,3.4864056 C41.3622792,3.56692673 40.1095876,3.77800066 39.1313915,4.63351503 C38.5952475,4.44451656 38.1552764,4.18576327 37.6982059,4.15084063 C36.8518293,4.0861523 35.9910675,4.10352315 35.1446005,4.17988252 C34.4819749,4.23968529 33.7961882,4.35078635 33.1832324,4.59560677 C31.6616545,5.20322464 30.6476311,6.30174998 30.6032992,8.00617419 C30.5394252,10.4618877 30.5760668,12.9202249 30.570548,15.377386 L30.570548,15.377386 Z M56.837445,9.92058666 C57.2788636,9.92963397 57.588101,10.2528042 57.5805917,10.697118 C57.5719967,11.2040392 57.1711101,11.5721745 56.6374993,11.5630367 C56.2206893,11.5559798 55.9210422,11.2429426 55.9227538,10.816633 C55.925023,10.314145 56.3371283,9.91027271 56.837445,9.92058666 L56.837445,9.92058666 Z M59.703002,9.64934807 C60.0930319,9.66120005 60.4449725,10.0136836 60.4542008,10.401723 C60.4651481,10.860422 59.9924257,11.339387 59.5338172,11.3340491 C59.1240641,11.3291636 58.7523098,10.9544237 58.7583715,10.5522704 C58.7652475,10.091581 59.2426745,9.63532472 59.703002,9.64934807 L59.703002,9.64934807 Z M48.3812789,3.89063976 C48.7174772,3.85490286 49.0370285,3.66346161 49.2623972,3.57959298 C50.1811523,4.41782698 51.1021693,5.25805139 52.1010836,6.16938772 C51.45031,6.39077559 50.9373271,6.56520788 50.43502,6.73602124 C50.1066024,6.24140437 49.7702231,6.09474735 49.3127003,6.21996223 C48.9443839,6.32083982 48.6450082,6.72851196 48.6177758,7.12415117 C48.5890958,7.54249915 48.7714897,7.82323743 49.1440582,7.97649899 C49.5949766,8.16224043 49.9610311,7.97034682 50.4817947,7.28944567 C50.90729,7.485682 51.332514,7.70146053 51.7737517,7.87734039 C52.0163103,7.97396574 52.059285,8.12143702 52.0699608,8.35748155 C52.0874222,8.74416391 52.1148355,9.13935076 52.2116418,9.51191931 C52.9927873,12.5206049 55.7432624,14.203225 58.8156411,13.6520624 C62.3342335,13.0209215 65.1273214,9.38199982 64.2680977,5.63821969 C63.5951581,2.70616491 60.9916115,1.14731204 58.3254574,1.35241473 C57.1310305,1.44433548 56.0203817,1.84277936 55.036124,2.54684164 C54.8427828,2.68517513 54.6915117,2.71946446 54.4801663,2.54856063 C54.1450537,2.27759346 53.7740232,2.0507772 53.4259729,1.81066138 C53.6444656,1.07574775 53.5756155,0.748325318 53.1582627,0.469758401 C52.8198026,0.243937347 52.342647,0.281212296 51.9888064,0.561317258 C51.6558651,0.824775154 51.5074891,1.3663476 51.6656362,1.74018278 C51.8538204,2.18494892 52.1797953,2.31486841 52.9741498,2.23109025 C53.0683324,2.82070395 53.1630578,3.41312233 53.2670115,4.06326259 C52.0681514,3.65730944 50.9513505,3.28664082 49.8431445,2.89208729 C49.7324053,2.85273146 49.6308039,2.67875153 49.5975098,2.5486511 C49.4239823,1.87236409 48.9792161,1.56746948 48.301572,1.68870354 C47.7115059,1.79428574 47.2989482,2.37991862 47.3579368,3.0283399 C47.4037162,3.53109935 47.8435968,3.94781881 48.3812789,3.89063976 L48.3812789,3.89063976 Z M78.4273311,25.132385 C76.9397711,26.9990277 73.3616473,27.3961145 71.4366495,26.5420476 C70.2772357,26.0277076 69.3940365,24.7297794 69.4328495,23.6165069 C69.4512156,23.0945672 69.8234222,22.6251923 70.32012,22.4978966 C70.8921819,22.3512395 71.2850165,22.5244052 71.5870159,23.0768344 C71.7802666,23.4304036 71.9501753,23.796639 72.1366405,24.1540081 C72.3839942,24.6279066 72.8037897,24.9039403 73.3028398,24.9948658 C74.2590508,25.1692981 75.1859485,25.0681491 76.0131448,24.4963586 C76.6170532,24.0789154 76.9534325,23.506763 76.8323794,22.7675971 C76.7152166,22.0522257 76.1674015,21.7295078 75.5159947,21.5880078 C74.4802577,21.3629105 73.4330307,21.1890211 72.4008222,20.9499909 C71.4925619,20.7397313 70.6582183,20.3626391 70.111127,19.553266 C69.3884272,18.4843254 69.5162658,16.7330361 70.4528442,15.7495021 C70.9371471,15.2408619 71.5454887,14.8503797 72.0356724,14.456369 C69.3310672,14.6963943 66.5170799,14.9461908 63.6893407,15.1970729 C63.7158494,15.2257529 63.7237205,15.242219 63.7351202,15.2452951 C63.8077701,15.2651087 63.880782,15.2839272 63.9545176,15.2994886 C65.6785745,15.6637336 66.7439867,16.751764 67.2651122,18.3879715 C67.837355,20.1836831 67.8137415,22.0083462 67.2526269,23.791663 C66.6107197,25.8317427 65.2610408,27.1880261 63.0971938,27.5680135 C62.0944795,27.7441648 61.0737611,27.8255906 60.0582902,27.9186875 C59.3855316,27.9803902 58.7077066,28.0090702 58.0319624,28.0113321 C57.4235303,28.013413 57.1533773,27.7727543 57.0335004,27.1900166 C56.9854591,26.9565053 56.9515317,26.7153943 56.9510793,26.4776307 C56.9455605,23.5372524 56.9532507,20.5968741 56.9433891,17.6565863 C56.9409463,16.9484527 56.931899,16.2541615 57.608186,15.7321313 C56.3344141,15.8465799 55.1403491,15.9538811 54.0202007,16.0545777 C54.0824462,16.5562515 54.1852238,17.0104268 54.1875761,17.4650546 C54.2021423,20.450579 54.1967139,23.4361939 54.1928235,26.4218088 C54.1922807,26.7677782 54.1787097,27.1157381 54.1390824,27.4591743 C54.0716799,28.043631 53.7733899,28.4608028 53.1956281,28.6495299 C52.4061592,28.9074689 51.7287865,28.6529679 51.1481296,27.8293 C50.1016264,26.3449066 49.0728559,24.8480278 48.0377522,23.3556728 C47.4117683,22.4532028 46.7875938,21.5494662 46.0907694,20.5424997 L46.0907694,23.289175 C46.0907694,24.8573466 46.0967406,26.4256087 46.0881457,27.9937803 C46.083622,28.8035152 45.5389735,29.3716868 44.7979077,29.3721391 C44.1004499,29.372501 43.7521282,28.950896 43.7191055,28.0632637 C43.714039,27.9277349 43.7163008,27.7919346 43.7163008,27.6562248 C43.7161199,24.685719 43.705444,21.7151226 43.7253481,18.7447072 C43.729329,18.1525602 43.8506535,17.561318 43.9204083,16.9461004 C41.7801748,17.134737 39.5417779,17.3321495 37.3107093,17.5287477 C37.5148168,17.9197728 37.7317715,18.2747895 37.8926328,18.6536007 C38.6698879,20.4831493 39.4399051,22.315955 40.1968942,24.1540081 C40.7368381,25.4651454 41.275244,26.7778207 41.7681419,28.1069622 C41.9988485,28.7289653 41.6020331,29.3918623 40.9455597,29.6482633 C40.3041049,29.898874 39.799355,29.6992902 39.4782657,29.0155844 C39.1863088,28.3940336 38.9186891,27.7589119 38.6825541,27.1142905 C38.5764291,26.8246859 38.4439763,26.7163895 38.1362771,26.7436219 C36.5802289,26.8818649 35.022914,27.0043656 33.4553757,27.1331994 C33.41222,27.2588666 33.3733166,27.3862529 33.3250944,27.5099297 C33.0216473,28.2896276 32.7320427,29.0752967 32.405525,29.8452234 C32.2086553,30.3093508 31.8146446,30.4893924 31.3115233,30.4769071 C30.8563527,30.465598 30.4567327,30.2723473 30.3557646,29.8643132 C30.2591393,29.4735596 30.2937,29.0021038 30.4190959,28.6141549 C30.7449802,27.6064646 31.1482192,26.6234735 31.5281161,25.633516 C32.5320065,23.0171221 33.5399682,20.4020854 34.5512773,17.7736586 C32.0189331,17.9967654 29.4273289,18.2250293 26.6812869,18.4669545 C28.4534756,19.2016872 28.9231218,20.5358952 28.6844536,22.1453226 C28.4355619,23.8246857 27.1679422,24.5871032 25.7000148,25.0856104 C25.7257092,25.1434228 25.72969,25.1804263 25.7493227,25.1928211 C27.2762386,26.1601604 28.1861273,27.6070074 28.8481196,29.2322676 C28.9440211,29.4676788 28.9366928,29.7970917 28.8549051,30.042274 C28.6836393,30.5556188 28.2135407,30.750498 27.7245332,30.8056867 C27.1597091,30.8695607 26.7479657,30.5491952 26.4522089,30.1003578 C25.8913656,29.2488242 25.363726,28.3752152 24.7953735,27.5289291 C24.4950931,27.0817202 24.1752704,26.6360493 23.7989019,26.253981 C23.0408272,25.4845971 22.0751165,25.766602 21.1189054,25.7741113 C21.1189054,26.991066 21.1263242,28.1638698 21.1145627,29.3364022 C21.1107629,29.7103279 21.0905873,30.0906771 21.0167612,30.4557364 C20.8918178,31.0738492 20.2660148,31.4909305 19.5938895,31.4527508 C19.0055425,31.4192758 18.658035,31.0445359 18.5785995,30.3452687 C18.5531766,30.1213475 18.5367104,29.8950741 18.536439,29.6697959 C18.5337248,26.6842715 18.5250394,23.6985661 18.5438578,20.7131322 C18.5471149,20.2024111 18.671425,19.6925042 18.7416322,19.1692074 C17.2921614,19.2977697 15.750408,19.4345652 14.1151957,19.5795937 C16.333779,20.6981136 16.4072432,23.7684114 14.142971,25.0226411 C14.6564968,25.3630012 15.3398407,25.6365921 15.761898,26.1324756 C16.6975717,27.2319056 16.5660237,28.4997063 15.9412159,29.7133135 C15.2044928,31.1444182 13.8655802,31.6282688 12.3838105,31.8092152 C11.1759031,31.9567769 9.96401486,32.1023483 8.7498648,32.1550941 C7.94537729,32.1900168 7.10334342,32.5312816 6.32807875,31.9849141 C6.20268292,32.3619158 6.3616443,32.4675885 6.68970005,32.5530856 C14.9755957,34.7132233 23.2585056,36.8854843 31.5415966,39.0562977 C42.3936734,41.9005031 53.2458408,44.7439846 64.0954748,47.5973277 C64.3936744,47.675768 64.5477502,47.6363216 64.7175684,47.3682496 C69.4214499,39.9429349 74.1351025,32.5238628 78.8392555,25.098729 C78.9632942,24.9028546 78.9991216,24.6510677 79.0760238,24.4252467 C78.7974569,24.6368634 78.619858,24.8906407 78.4273311,25.132385 L78.4273311,25.132385 Z" id="Fill-1"></path>
        </g>
    </g>
</svg>